<?xml version="1.0" encoding="UTF-8"?>
<svg id="Layer_2" data-name="Layer 2" xmlns="http://www.w3.org/2000/svg" viewBox="0 0 431.65 106.93">
  <defs>
    <style>
      .cls-1 {
        fill: #1a1a1e;
      }

      .cls-2 {
        fill: #faf9f3;
      }
    </style>
  </defs>
  <g id="darkmode">
    <rect class="cls-1" y="0" width="431.65" height="106.92"/>
    <g>
      <path class="cls-2" d="M134.07,43.68c7.47-8.22,17.49-13.22,28.85-10.73,11.03,2.42,14.83,11.61,14.83,21.88,0,13.48-.02,26.67-.02,39.38,0,5.02,2.32,8.07,7.68,8.28v2.63s-35.4.01-35.4.01l-.08-2.62c5.74-.71,7.68-2.98,7.66-8.54-.04-13.41-.25-28.59-.25-42.25-.8-11.86-12.45-12.31-19.92-5.53-1,.91-2.47,2.2-2.64,3.6,0,13.8,0,27.88,0,41.78,0,2.81.34,7.21,2.65,9.11,1.43,1.18,3.22,1.34,4.94,1.78l.1,2.66h-35.52l.03-2.62c5.39-.39,7.42-2.57,7.86-7.86l.04-45.34c0-5.56-2.26-9.56-8.41-9.71v-2.64c9.2.79,17.62-2.36,26.05-5.47.36.07.49,1.18.56,1.54.63,3.37.6,7.22.99,10.65"/>
      <path class="cls-2" d="M267.94,12.53l1.73,24.43-3.45.24c-4.02-10.78-9.01-24.78-22.13-26.61-15.79-2.21-24.49,11.71-27.62,25.13-4.63,19.9-3.81,68.94,26.68,66.52,14.64-1.16,19.78-15.65,24.27-27.37l3.07.71-1.9,24.03c-4.62,2.79-9.95,4.78-15.24,5.88-24.12,5.01-48.98-2.78-58.09-27.12-5.27-14.09-5.04-32.79,1.24-46.53C209,4.51,243.08-.72,267.94,12.53"/>
      <path class="cls-2" d="M431.19,67.44h-41.28c.01,6.12.99,13.68,4.13,19.03,6.64,11.33,22.48,11.56,31.64,3.17,1.18-1.08,2.03-2.41,3.24-3.44l2.46,1.75c-4.38,9.39-12.29,16.92-22.89,18.33-30.13,4.02-45.32-23.98-37.27-50.47,5.34-17.6,23.06-27.03,40.89-22.44,15.17,3.91,21.37,19.55,19.1,34.06M412.23,62.88c.73-6.24.57-13.59-1.74-19.5-1.85-4.72-5.84-7.67-11.05-5.89-5.45,1.86-7.52,8.96-8.5,14.06-.72,3.73-1.19,7.52-1.04,11.32h22.32Z"/>
      <path class="cls-2" d="M348.15,12.72v21.84h15.36v4.8h-15.36v51c0,.57.5,2.48.71,3.13,2.38,7.25,11.32,4.9,15.04.13l2.25,2.26c-1.7,2.98-4,5.65-6.89,7.52-8.59,5.57-23.59,4.5-28.76-5.23-.91-1.72-2.28-5.42-2.28-7.32v-51.12l-.36-.36h-9v-3.84c11.85-2.02,20.23-11.79,23.76-22.8h5.52Z"/>
      <path class="cls-2" d="M278.7,105.36c0-.92,0-1.96,0-2.89,2.34-.37,5.24-.47,6.8-2.51,1.43-1.86,1.93-5.81,1.93-8.15,0-11.86-.26-26.63-.26-38.88,0-1.43.1-2.87-.02-4.3-.45-5.2-2.91-9.13-8.61-8.79v-3.12c4.26.81,8.1.63,12.24-.6,5.76-1.72,10.92-5.52,16.56-7.56v65.16c.07.97.36,2.51.6,3.48.99,3.99,3.73,4.99,7.55,5.29,0,1.19.01,2.63.01,2.63,0,0-25.86.24-36.81.24Z"/>
      <path class="cls-2" d="M92.31,28.56v65.64c.37,5.22,2.54,8.44,8.16,8.28v2.64l-37.2.24v-2.88c2.15-.16,5.12-.47,6.73-2.03,1.97-1.9,2.4-6.48,2.4-9.12,0-11.95-.26-26.26-.26-38.4,0-3.35.27-6.32-1.34-9.46-1.41-2.75-4.58-3.99-7.53-3.63v-3.12c4.04.7,7.78.75,11.76-.36,6.15-1.72,11.27-5.77,17.28-7.8"/>
      <path class="cls-2" d="M294.82.08c6.84-.57,13.81,2.33,14.42,9.92,1.21,15.04-21.9,15.74-25,4.12-2.1-7.88,2.88-13.39,10.58-14.04"/>
      <path class="cls-2" d="M79.78.08c8.52-.71,15.12,3.59,14.21,12.77-1.3,12.96-26.66,12.73-25.19-3.35.53-5.87,5.53-8.96,10.99-9.41"/>
      <path class="cls-2" d="M21.92,69.82h16.32c.16,0,.31.08.39.21l21.47,34.49c.17.28-.05.62-.4.62h-16.12c-.17,0-.33-.09-.4-.22l-6.37-11.2-6.32-11.82c-.08-.14-.23-.23-.41-.23s-.33.09-.41.23l-6.32,11.82-6.37,11.2c-.08.14-.23.22-.4.22H.45c-.35,0-.57-.34-.39-.62l21.46-34.49c.08-.13.23-.21.4-.21"/>
    </g>
  </g>
</svg>